<?xml version="1.0" standalone="no"?>
<!DOCTYPE svg PUBLIC "-//W3C//DTD SVG 1.1//EN" "http://www.w3.org/Graphics/SVG/1.1/DTD/svg11.dtd" >
<!--
2017-1-25: Created.
-->
<svg>
<metadata>
Created by FontForge 20120731 at Fri Jan 27 18:46:16 2017
 By Niccolo Rigacci,,,
Created by Niccolo Rigacci,,, with FontForge 2.0 (http://fontforge.sf.net)
</metadata>
<defs>
<font id="rigacci.org-webfont" horiz-adv-x="1100" >
  <font-face 
    font-family="Rigacci.Org Webfont"
    font-weight="500"
    font-stretch="normal"
    units-per-em="2048"
    panose-1="2 0 6 3 0 0 0 0 0 0"
    ascent="1638"
    descent="-410"
    bbox="20 -390 2014 1604"
    underline-thickness="102"
    underline-position="-204"
    unicode-range="U+F000-F01B"
  />
    <missing-glyph />
    <glyph glyph-name="arrow_down.1" unicode="&#xf000;" 
d="M550 395l-300 300l85 85l140 -140v193h150v-193l140 140l85 -85z" />
    <glyph glyph-name="arrow_down.2" unicode="&#xf001;" 
d="M550 523l-300 300l85 84l140 -140v193h150v-193l140 140l85 -84zM335 652l215 -215l215 215l85 -84l-300 -300l-300 300z" />
    <glyph glyph-name="arrow_down.3" unicode="&#xf002;" 
d="M550 650l-300 300l85 85l140 -141v194h150v-194l140 141l85 -85zM335 525l215 -215l215 215l85 -85l-300 -300l-300 300zM335 780l215 -215l215 215l85 -85l-300 -300l-300 300z" />
    <glyph glyph-name="arrows_left_right" unicode="&#xf003;" horiz-adv-x="1409" 
d="M550 914l85 -85l-141 -140h421l-140 140l84 85l300 -300l-84 -85l-216 -215l-84 85l140 140h-421l141 -140l-85 -85l-215 215l-85 85l85 85z" />
    <glyph glyph-name="arrow_up.1" unicode="&#xf004;" 
d="M550 833l300 -300l-85 -85l-140 140v-193h-150v193l-140 -140l-85 85z" />
    <glyph glyph-name="arrow_up.2" unicode="&#xf005;" 
d="M550 705l300 -300l-85 -84l-140 140v-193h-150v193l-140 -140l-85 84zM335 576l-85 84l300 300l300 -300l-85 -84l-215 215z" />
    <glyph glyph-name="arrow_up.3" unicode="&#xf006;" 
d="M550 578l300 -300l-85 -85l-140 141v-194h-150v194l-140 -141l-85 85zM335 703l-85 85l300 300l300 -300l-85 -85l-215 215zM335 448l-85 85l300 300l300 -300l-85 -85l-215 215z" />
    <glyph glyph-name="car_smoke" unicode="&#xf007;" horiz-adv-x="1988" 
d="M1456 1202c0 33 25 58 58 58c30 0 58 -28 58 -58s-25 -57 -58 -57s-58 24 -58 57zM1862 303v-225c0 -55 -41 -76 -85 -76h-189c-5 -96 -85 -170 -181 -170s-176 74 -184 170h-658c-5 -96 -85 -170 -181 -170s-173 74 -181 170h-99c-68 0 -79 32 -79 76v216
c0 39 3 66 22 105l192 378c22 47 80 85 132 85h729c52 0 102 -33 132 -85l173 -282l348 -76c90 -14 106 -69 109 -116zM485 21c0 55 -43 98 -98 98s-98 -43 -98 -98s43 -99 98 -99s98 44 98 99zM682 756h-268c-44 -3 -63 -19 -88 -66l-85 -192h441v258zM1261 498l-115 192
c-22 36 -54 66 -104 66h-244v-258h463zM1506 21c0 55 -41 98 -96 98s-99 -43 -99 -98s44 -99 99 -99h1c51 0 95 44 95 99zM1777 1002c82 -6 148 -76 148 -161c0 -88 -71 -162 -162 -162c-14 0 -24 2 -38 5c-2 -61 -52 -110 -113 -110c-63 0 -112 49 -112 112
c0 61 46 110 107 113c-2 14 -5 27 -5 41c0 39 13 77 38 104c-36 14 -57 49 -57 88c0 57 46 101 101 101s98 -43 98 -98c0 -13 -2 -22 -5 -33z" />
    <glyph glyph-name="dust_mask" unicode="&#xf008;" horiz-adv-x="1574" 
d="M787 1590c293 0 506 -61 602 -184c58 -74 65 -160 65 -196c0 -12 -1 -18 -1 -18l-18 -283c0 -7 -4 -13 -9 -17c-4 -3 -12 -5 -19 -4c-97 19 -169 59 -215 119c-50 66 -60 139 -60 187c0 27 3 45 4 50c1 8 2 15 2 21c0 25 -11 36 -29 36c-11 0 -24 -4 -37 -11
c-46 -25 -212 -110 -328 -110c-26 0 -49 4 -68 12c-33 14 -55 42 -65 85c0 0 -5 20 -12 27c-9 8 -34 5 -34 5c-169 -21 -304 -118 -390 -281c-5 -9 -15 -14 -25 -12s-18 11 -19 21l-9 152c0 6 -2 18 -2 34c0 42 9 112 66 183c98 122 308 184 601 184zM505 1202
c8 0 15 -5 19 -12c22 -44 56 -74 100 -93c30 -13 67 -20 107 -20c101 0 211 40 286 74c6 3 14 2 20 -1s10 -9 11 -16c8 -76 33 -144 75 -200c55 -74 138 -125 244 -152c7 -2 13 -7 15 -14s1 -15 -4 -21l-269 -326c-4 -5 -11 -8 -18 -8s-12 4 -16 9
c-85 118 -174 170 -288 170s-203 -52 -288 -170c-4 -5 -9 -9 -16 -9h-1c-6 0 -12 3 -16 8l-305 358c-4 5 -6 12 -4 19c31 126 117 346 343 403c2 0 3 1 5 1zM1444 723h3l84 -13c6 -1 12 -4 15 -9s4 -11 3 -17l-82 -275c-2 -5 -6 -8 -11 -10c-20 -8 -36 -31 -44 -64
c-18 -67 -56 -181 -102 -286c-27 -67 -54 -124 -80 -167c-88 -163 -266 -272 -443 -272c-206 0 -368 147 -443 272c-26 43 -53 100 -80 167c-46 105 -84 219 -102 286c-8 33 -24 56 -44 64c-6 2 -11 8 -13 14l-80 270c-1 2 -1 3 -1 5c0 5 2 9 4 13c3 5 9 8 15 9l87 11
c7 1 14 -2 19 -8l292 -355c6 -7 6 -16 2 -24c-24 -42 -49 -91 -79 -155c2 -7 4 -12 4 -12c32 -88 65 -164 95 -213v-1c61 -102 185 -204 324 -204c63 0 128 20 187 58c56 36 104 86 134 142l1 2l1 1l1 2c30 49 63 125 95 213l4 11c-30 64 -55 114 -79 156c-4 8 -4 17 2 24
l294 358c4 5 11 7 17 7zM630 270h314c9 0 16 -6 16 -15v-58c0 -9 -7 -16 -16 -16h-314c-9 0 -16 7 -16 16v58c0 9 7 15 16 15zM566 125h442c9 0 16 -6 16 -15v-58c0 -9 -7 -16 -16 -16h-442c-9 0 -16 7 -16 16v58c0 9 7 15 16 15zM630 -20h314c9 0 16 -6 16 -15v-58
c0 -9 -7 -16 -16 -16h-314c-9 0 -16 7 -16 16v58c0 9 7 15 16 15z" />
    <glyph glyph-name="flower" unicode="&#xf009;" horiz-adv-x="1122" 
d="M405 1444c3 91 73 146 156 146c84 0 152 -54 155 -146c37 35 76 42 101 42c80 0 161 -70 161 -162c0 -37 -14 -71 -42 -100c96 -3 146 -79 146 -155s-50 -153 -146 -156c28 -29 42 -63 42 -100c0 -93 -81 -162 -161 -162c-25 0 -64 7 -101 42c-2 -81 -52 -126 -115 -141
v-127c55 43 152 65 194 65c32 0 41 -11 41 -42c0 -25 -7 -56 -13 -77c-9 -34 -29 -95 -65 -131c-40 -40 -97 -45 -127 -45c-3 0 -15 0 -30 2v-290c56 41 149 62 190 62c32 0 41 -11 41 -42c0 -25 -7 -56 -13 -77c-9 -34 -28 -95 -64 -131c-40 -40 -98 -45 -128 -45
c-3 0 -13 0 -26 1v-25c0 -22 -18 -40 -40 -40s-40 18 -40 40v286c-15 -2 -27 -2 -30 -2c-30 0 -88 6 -128 46c-36 36 -55 97 -64 131c-6 21 -13 53 -13 77c0 30 10 42 41 42c42 0 139 -22 194 -65v387c-63 15 -114 62 -116 142c-37 -35 -76 -42 -101 -42
c-79 0 -161 68 -161 160c0 37 15 71 43 101c-82 1 -146 66 -146 155c0 90 64 155 146 156c-28 30 -43 64 -43 101c0 92 82 161 161 161c25 0 64 -7 101 -42zM666 1266c0 70 -45 111 -105 111s-105 -41 -105 -111c0 -6 0 -12 1 -18c-30 22 -58 27 -75 27
c-57 0 -104 -48 -104 -106c0 -47 34 -81 74 -101c-34 -15 -51 -37 -60 -52c-9 -16 -13 -33 -13 -50c0 -61 50 -106 103 -106c17 0 45 5 75 27c-1 -6 -1 -12 -1 -18c0 -69 46 -111 105 -111s105 42 105 111c0 6 0 12 -1 18c30 -22 58 -27 75 -27c57 0 104 48 104 106
c0 37 -22 78 -75 102c41 19 75 54 75 101c0 58 -47 106 -104 106c-17 0 -45 -5 -75 -27c1 6 1 12 1 18zM561 1181c62 0 113 -51 113 -113s-51 -113 -113 -113s-113 51 -113 113s51 113 113 113z" />
    <glyph glyph-name="flower.1" unicode="&#xf00a;" horiz-adv-x="1232" 
d="M218 1408c0 108 92 182 186 182c101 0 170 -84 197 -177c27 93 96 177 197 177c94 0 186 -74 186 -182c0 -44 -15 -105 -78 -171c27 7 53 10 78 10c130 0 198 -94 198 -186s-68 -186 -198 -186c-25 0 -51 3 -78 10c63 -66 78 -127 78 -171c0 -108 -92 -182 -186 -182
c-60 0 -114 30 -152 83v-424c9 12 18 24 29 35c85 85 212 94 262 94c13 0 81 -1 100 -20c14 -14 21 -56 21 -100c0 -16 -1 -33 -3 -48c-6 -62 -27 -149 -92 -214c-85 -85 -212 -94 -262 -94c-7 0 -32 0 -55 4v-197c0 -23 -18 -41 -41 -41s-41 18 -41 41v53
c-27 -4 -56 -5 -65 -5c-56 0 -197 10 -293 106c-72 72 -96 171 -103 241c-2 17 -3 35 -3 53c0 50 6 97 21 112c22 22 97 22 112 22c56 0 198 -10 294 -106c14 -14 26 -29 37 -44v542c-37 -57 -96 -93 -160 -93c-94 0 -186 74 -186 182c0 44 16 105 79 171
c-27 -7 -54 -10 -79 -10c-130 0 -198 94 -198 186s68 186 198 186c25 0 52 -3 79 -10c-63 66 -79 127 -79 171zM601 904c87 0 158 70 158 157s-71 158 -158 158s-157 -71 -157 -158s70 -157 157 -157z" />
    <glyph glyph-name="flower.2" unicode="&#xf00b;" horiz-adv-x="974" 
d="M859 1105c33 -25 56 -61 67 -101c4 -16 6 -32 6 -48c0 -33 -8 -65 -25 -94c-25 -43 -66 -75 -114 -88c-16 -4 -33 -6 -49 -6c-24 0 -48 5 -71 14c-10 -75 -64 -136 -135 -156v-75c55 50 127 80 207 80h82c28 0 51 -24 51 -52v-81c0 -170 -139 -309 -309 -309h-31v-528
c0 -28 -23 -51 -51 -51s-51 23 -51 51v320h-31c-170 0 -309 139 -309 309v82c0 28 23 51 51 51h82c80 0 152 -29 207 -79v282c-71 20 -125 81 -135 156c-23 -9 -47 -14 -71 -14c-65 0 -128 34 -163 94c-17 29 -25 61 -25 94c0 16 2 32 6 48c11 40 34 76 67 101
c-33 25 -56 60 -67 100c-4 16 -6 32 -6 48c0 33 8 65 25 94c35 60 98 94 163 94c24 0 48 -5 71 -14c12 92 91 163 186 163s174 -71 186 -163c23 9 47 14 71 14c65 0 128 -34 163 -94c17 -29 25 -61 25 -94c0 -16 -2 -32 -6 -48c-11 -40 -34 -75 -67 -100zM348 1105
c0 -77 62 -140 139 -140s139 63 139 140s-62 139 -139 139s-139 -62 -139 -139zM702 1328c-21 -12 -36 -33 -41 -56c27 -28 47 -62 58 -100c9 -3 18 -4 27 -4c15 0 29 4 42 11c20 11 34 30 40 52c2 7 3 14 3 21c0 15 -4 30 -12 44c-16 28 -45 43 -75 43
c-14 0 -29 -3 -42 -11zM487 1488c-47 0 -86 -39 -86 -86c0 -24 11 -47 28 -63c19 5 38 7 58 7s39 -2 58 -7c17 16 28 39 28 63c0 47 -39 86 -86 86zM155 1296c-8 -14 -12 -29 -12 -44c0 -7 1 -14 3 -21c6 -22 20 -41 40 -52c13 -7 27 -11 42 -11c9 0 18 1 27 4
c11 38 31 72 58 100c-5 23 -20 44 -41 56c-13 8 -28 11 -42 11c-30 0 -59 -15 -75 -43zM272 882c21 12 36 32 41 55c-27 28 -47 63 -58 101c-8 2 -17 4 -25 4c-15 0 -30 -4 -44 -12c-20 -11 -34 -30 -40 -52c-2 -7 -3 -14 -3 -21c0 -15 4 -30 12 -44c16 -27 45 -43 74 -43
c15 0 29 4 43 12zM436 83v31c0 114 -93 207 -207 207h-31v-31c0 -114 93 -207 207 -207h31zM745 528c-114 0 -207 -93 -207 -207v-30h31c114 0 207 93 207 207v30h-31zM487 721c47 0 86 39 86 86c0 24 -11 47 -28 63c-19 -5 -38 -7 -58 -7s-39 2 -58 7
c-17 -16 -28 -39 -28 -63c0 -47 39 -86 86 -86zM819 913c8 14 12 29 12 44c0 7 -1 14 -3 21c-6 22 -20 41 -40 52c-14 8 -29 12 -44 12c-8 0 -17 -2 -25 -4c-11 -38 -31 -73 -58 -101c5 -23 20 -43 41 -55c14 -8 29 -12 44 -12c7 0 14 1 21 3c22 6 41 20 52 40z" />
    <glyph glyph-name="flower.3" unicode="&#xf00c;" horiz-adv-x="1182" 
d="M591 1590c82 0 151 -52 177 -125c25 12 52 18 81 18c50 0 98 -20 133 -55s55 -82 55 -132c0 -29 -7 -57 -19 -82c73 -26 125 -94 125 -176s-52 -151 -125 -177c12 -25 19 -52 19 -81c0 -50 -20 -98 -55 -133s-83 -55 -133 -55c-29 0 -56 6 -81 18
c-20 -56 -65 -100 -122 -117v-162h279c16 0 31 -7 41 -19s15 -28 13 -44l-92 -611c-4 -27 -27 -47 -54 -47h-518c-27 0 -51 20 -55 47l-91 611c-2 16 2 32 12 44s26 19 42 19h313v162c-57 17 -102 62 -122 118c-26 -12 -54 -18 -82 -18c-48 0 -95 17 -132 54
c-35 35 -55 83 -55 133c0 29 7 56 19 81c-73 26 -125 95 -125 177s52 150 125 176c-12 25 -19 53 -19 82c0 50 20 97 55 132c37 37 85 55 133 55c28 0 55 -6 81 -18c26 73 95 125 177 125zM591 1481c-43 0 -78 -36 -78 -79c0 -8 1 -15 3 -23c2 -6 3 -11 3 -17
c0 -22 -14 -42 -35 -50c-4 -1 -7 -3 -11 -5c-7 -3 -14 -5 -22 -5c-20 0 -40 11 -49 30c-4 7 -8 13 -14 19c-15 15 -35 23 -55 23s-40 -8 -55 -23s-22 -35 -22 -55s7 -41 22 -56c6 -6 12 -10 19 -14c19 -9 30 -28 30 -48c0 -7 -2 -15 -5 -22c-2 -4 -4 -8 -5 -12
c-8 -21 -28 -35 -50 -35c-6 0 -11 1 -17 3c-8 2 -16 4 -24 4c-43 0 -78 -35 -78 -78s35 -79 78 -79c8 0 16 2 24 4c6 2 11 3 17 3c22 0 42 -14 50 -35c1 -4 3 -8 5 -12c3 -7 5 -15 5 -22c0 -20 -11 -39 -30 -48c-7 -4 -13 -8 -19 -14c-15 -15 -22 -35 -22 -55s7 -41 22 -56
s35 -22 55 -22s40 7 55 22c6 6 10 12 14 19c10 19 29 30 49 30c7 0 15 -2 22 -5c4 -2 7 -4 11 -5c21 -8 35 -28 35 -50c0 -6 -1 -11 -3 -17c-2 -8 -3 -15 -3 -23c0 -43 35 -78 78 -78s78 35 78 78c0 8 -1 15 -3 23c-2 6 -3 11 -3 17c0 22 14 42 35 50c4 1 7 3 11 5
c7 3 14 5 22 5c20 0 40 -11 49 -30c4 -7 8 -13 14 -19c15 -15 35 -22 55 -22s40 7 55 22s22 36 22 56s-7 40 -22 55c-6 6 -12 10 -19 14c-19 9 -30 28 -30 48c0 7 2 15 5 22c2 4 4 8 5 12c8 21 28 35 50 35c6 0 11 -1 17 -3c8 -2 16 -4 24 -4c43 0 78 36 78 79
s-35 78 -78 78c-8 0 -16 -2 -24 -4c-6 -2 -11 -3 -17 -3c-22 0 -42 14 -50 35c-1 4 -3 8 -5 12c-3 7 -5 15 -5 22c0 20 11 39 30 48c7 4 13 8 19 14c15 15 22 36 22 56s-7 40 -22 55s-35 23 -55 23s-40 -8 -55 -23c-6 -6 -10 -12 -14 -19c-9 -19 -29 -30 -49 -30
c-8 0 -15 2 -22 5c-4 2 -7 3 -11 5c-21 8 -35 28 -35 50c0 6 1 11 3 17c2 8 3 15 3 23c0 43 -35 79 -78 79zM591 1284c136 0 247 -110 247 -246s-111 -247 -247 -247s-247 111 -247 247s111 246 247 246zM591 1175c-76 0 -137 -61 -137 -137s61 -138 137 -138
s137 62 137 138s-61 137 -137 137zM286 221l76 -502h424l76 502h-576z" />
    <glyph glyph-name="flower.4" unicode="&#xf00d;" horiz-adv-x="1882" 
d="M480 1590c67 0 125 -46 142 -108c22 13 47 19 72 19c38 0 75 -13 104 -42s43 -66 43 -104c0 -25 -6 -51 -19 -73c62 -17 107 -74 107 -141s-45 -124 -107 -141c13 -22 19 -47 19 -72c0 -37 -14 -75 -43 -104s-66 -43 -104 -43c-25 0 -50 6 -72 19
c-17 -62 -75 -108 -142 -108s-124 46 -141 108c-22 -13 -47 -19 -72 -19c-38 0 -75 14 -104 43s-43 67 -43 104c0 25 6 50 19 72c-62 17 -108 74 -108 141s46 124 108 141c-13 22 -19 48 -19 73c0 38 14 75 43 104s66 42 104 42c25 0 50 -6 72 -19c17 62 74 108 141 108z
M480 1404c-145 0 -263 -118 -263 -263s118 -263 263 -263s263 118 263 263s-118 263 -263 263zM480 1345c113 0 204 -91 204 -204s-91 -204 -204 -204s-204 91 -204 204s91 204 204 204zM1402 1068c68 0 124 -46 141 -108c22 13 47 19 72 19c38 0 75 -14 104 -43
s43 -67 43 -104c0 -25 -6 -50 -19 -72c62 -17 108 -74 108 -141s-46 -125 -108 -142c13 -22 19 -47 19 -72c0 -37 -14 -75 -43 -104s-66 -43 -104 -43c-25 0 -50 6 -72 19c-17 -62 -74 -107 -141 -107s-125 45 -142 107c-22 -13 -47 -19 -72 -19c-38 0 -75 14 -104 43
s-43 67 -43 104c0 25 6 50 19 72c-62 17 -107 75 -107 142s45 124 107 141c-13 22 -19 47 -19 72c0 37 14 75 43 104s66 43 104 43c25 0 50 -6 72 -19c17 62 75 108 142 108zM1402 882c-145 0 -263 -118 -263 -263s118 -263 263 -263s263 118 263 263s-118 263 -263 263z
M1402 823c113 0 204 -91 204 -204s-91 -204 -204 -204s-204 91 -204 204s91 204 204 204zM416 614c20 -6 42 -9 65 -9c22 0 45 3 65 9v-939c0 -36 -29 -65 -65 -65s-65 29 -65 65v939zM855 377c28 0 51 -6 63 -22c6 -8 8 -18 8 -29c0 -65 -84 -174 -130 -207
c-21 -16 -46 -23 -70 -23c-37 0 -74 17 -97 49c-16 22 -23 46 -23 71c0 37 17 74 49 97c38 27 133 63 200 64zM1776 116c28 0 51 -6 63 -22c6 -8 8 -18 8 -29c0 -65 -85 -174 -130 -207c-21 -16 -46 -23 -70 -23c-37 0 -74 17 -97 49c-16 22 -23 46 -23 71c0 37 17 74 49 97
c38 27 133 63 200 64zM1336 92c23 -6 44 -9 66 -9s43 3 66 9v-417c0 -36 -30 -65 -66 -65s-66 29 -66 65v417zM101 35h5c67 -1 162 -37 200 -64c32 -23 49 -60 49 -97c0 -25 -7 -49 -23 -71c-23 -32 -59 -49 -96 -49c-25 0 -49 7 -71 23c-46 33 -130 142 -130 207
c0 11 2 21 8 29c11 15 32 21 58 22zM1023 -44h3c67 0 164 -36 201 -64c33 -24 50 -60 50 -97c0 -24 -8 -49 -23 -70c-24 -32 -61 -50 -98 -50c-24 0 -49 8 -70 23c-46 33 -130 143 -130 208c0 11 2 21 8 29c11 15 33 21 59 21z" />
    <glyph glyph-name="flower.5" unicode="&#xf00e;" horiz-adv-x="978" 
d="M489 1590c67 0 123 -45 140 -106c22 13 46 18 71 18c37 0 75 -14 103 -42s42 -66 42 -103c0 -25 -6 -49 -18 -71c61 -17 106 -73 106 -140s-45 -123 -106 -140c12 -22 18 -46 18 -71c0 -37 -14 -75 -42 -103s-66 -43 -103 -43c-25 0 -49 6 -71 19
c-17 -61 -73 -106 -140 -106s-123 45 -140 106c-22 -13 -47 -19 -72 -19c-37 0 -74 15 -102 43s-42 66 -42 103c0 25 6 49 18 71c-61 17 -106 73 -106 140s45 123 106 140c-12 22 -18 46 -18 71c0 37 14 75 42 103s66 42 103 42c25 0 49 -6 71 -18c17 61 73 106 140 106z
M490 1412c-146 0 -265 -119 -265 -265s119 -265 265 -265s265 119 265 265s-119 265 -265 265zM490 1348c111 0 201 -90 201 -201s-90 -201 -201 -201s-201 90 -201 201s90 201 201 201zM552 625v-368h303c48 0 86 -38 86 -86s-38 -87 -86 -87h-20l-90 -391
c-11 -48 -55 -83 -104 -83h-304c-49 0 -93 35 -104 83l-90 391h-20c-48 0 -86 39 -86 87c0 47 38 86 86 86h303v367c20 -6 41 -8 63 -8s43 3 63 9zM138 605h3c66 0 162 -35 199 -63c32 -24 49 -60 49 -97c0 -24 -7 -48 -22 -69c-23 -32 -59 -49 -96 -49c-24 0 -49 8 -70 23
c-45 32 -129 141 -129 205c0 11 2 21 8 29c11 15 32 21 58 21zM835 605c28 0 52 -5 63 -21c6 -8 8 -18 8 -29c0 -64 -84 -173 -129 -205c-21 -15 -46 -23 -70 -23c-37 0 -73 17 -96 49c-15 21 -22 45 -22 69c0 37 17 73 49 97c37 27 131 62 197 63z" />
    <glyph glyph-name="gas_mask" unicode="&#xf00f;" horiz-adv-x="2022" 
d="M1007 1589c643 0 742 -267 757 -629h177c34 0 61 -27 61 -61v-150c0 -34 -27 -61 -61 -61h-177c-17 -236 -125 -445 -284 -585c-6 38 -16 75 -31 111c-24 57 -59 108 -103 152s-95 79 -152 103c-59 25 -122 38 -187 38s-128 -13 -187 -38c-57 -24 -108 -59 -152 -103
s-79 -95 -103 -152c-15 -36 -26 -73 -32 -111c-159 140 -266 349 -283 585h-169c-34 0 -61 27 -61 61v150c0 34 27 61 61 61h169c15 362 114 629 757 629zM681 1039c-57 0 -114 -26 -161 -73s-73 -105 -73 -161c0 -47 18 -93 57 -132c43 -43 99 -65 155 -65s112 22 155 65
s64 99 64 155s-21 112 -64 155c-39 39 -86 56 -133 56zM1332 1039c-47 0 -93 -17 -132 -56c-43 -43 -64 -99 -64 -155s21 -112 64 -155s99 -65 155 -65s112 22 155 65c39 39 57 85 57 132c0 56 -26 114 -73 161s-105 73 -162 73zM1007 415c211 0 382 -168 388 -377v-11
c0 -214 -174 -388 -388 -388s-388 174 -388 388v11c6 209 177 377 388 377zM1007 331c-44 0 -80 -35 -80 -79s36 -80 80 -80s79 36 79 80s-35 79 -79 79zM782 107c-44 0 -80 -36 -80 -80c0 -15 5 -29 12 -41c14 -23 39 -39 68 -39c8 0 16 2 23 4c32 10 56 40 56 76
c0 44 -35 80 -79 80zM1232 107c-44 0 -80 -36 -80 -80c0 -36 24 -66 56 -76c7 -2 16 -4 24 -4c29 0 54 16 68 39c7 12 11 26 11 41c0 44 -35 80 -79 80zM1007 -118c-44 0 -80 -36 -80 -80s36 -79 80 -79s79 35 79 79s-35 80 -79 80z" />
    <glyph glyph-name="gas_mask.1" unicode="&#xf010;" horiz-adv-x="1778" 
d="M762 1589h222c271 0 500 -179 585 -427h35c67 0 122 -54 122 -121v-183c0 -67 -55 -122 -122 -122v-139c0 -80 -41 -152 -106 -200c-76 -56 -135 -134 -168 -225c-69 186 -248 318 -457 318s-387 -132 -456 -318c-33 91 -93 169 -169 225c-65 48 -106 120 -106 200v108
c-67 0 -122 55 -122 122v183c0 67 55 122 122 122h25c29 101 81 194 155 270c117 121 274 187 440 187zM599 1071c-84 0 -152 -68 -152 -152s68 -153 152 -153s152 69 152 153s-68 152 -152 152zM1147 1071c-84 0 -152 -68 -152 -152s68 -153 152 -153s153 69 153 153
s-69 152 -153 152zM873 370c202 0 366 -163 366 -365s-164 -366 -366 -366s-365 164 -365 366s163 365 365 365zM873 246c-34 0 -61 -27 -61 -61s27 -61 61 -61s61 27 61 61s-27 61 -61 61zM1434 120c21 42 66 67 111 67c30 0 61 -11 85 -35l61 -61c23 -23 35 -54 35 -86
c0 -19 -4 -38 -13 -55l-121 -244c-20 -39 -59 -67 -110 -67c-32 0 -63 13 -86 36l-61 61c-23 23 -35 54 -35 86c0 19 4 37 13 54zM117 152c24 24 54 35 84 35c45 0 90 -25 111 -67l122 -244c9 -17 13 -35 13 -54c0 -32 -13 -63 -36 -86l-61 -61c-23 -23 -54 -36 -86 -36
c-51 0 -89 28 -109 67l-122 244c-9 17 -13 36 -13 55c0 32 13 63 36 86zM690 63c-34 0 -61 -27 -61 -61s27 -61 61 -61s61 27 61 61s-27 61 -61 61zM1056 63c-34 0 -61 -27 -61 -61s27 -61 61 -61s61 27 61 61s-27 61 -61 61zM873 -119c-34 0 -61 -27 -61 -61s27 -61 61 -61
s61 27 61 61s-27 61 -61 61z" />
    <glyph glyph-name="plant_smoke" unicode="&#xf011;" horiz-adv-x="1936" 
d="M33 1514h1831s13 -253 -315 -257c0 0 -97 -144 -221 -144c-18 0 -37 3 -56 10c0 0 -61 -22 -131 -22c-76 0 -161 26 -192 133c0 0 -53 -21 -104 -21c-33 0 -65 9 -82 37c0 0 1 -19 1 -44c0 -37 -3 -89 -17 -111c-24 -37 -47 -118 -47 -118h-99s-40 59 -40 113
c0 20 5 39 20 55c0 0 -109 32 -109 112c0 8 1 17 4 26c-12 -34 -60 -146 -161 -146c-15 0 -31 2 -48 8c0 0 -247 35 -247 270c0 30 4 63 13 99zM590 914h107l38 -658l371 253v-260l443 260v-795h-1000zM822 93v-190h190v190h-190zM1106 93v-190h221v190h-221z" />
    <glyph glyph-name="skull" unicode="&#xf012;" horiz-adv-x="2048" 
d="M1004 1604c45 0 99 -3 129 -9c203 -42 366 -192 429 -380c25 -75 29 -117 29 -308v-45c0 -184 -4 -179 -127 -261l-85 -58v-141h-142v141h-142v-141h-142v141h-141v-141h-142v141l-86 58c-112 74 -126 76 -126 223c0 30 0 65 1 108c2 172 3 193 11 227
c38 160 137 290 266 367c76 46 163 78 268 78zM741 758c80 0 139 60 139 140c0 68 -36 106 -81 127c-19 9 -38 13 -58 13c-76 0 -140 -54 -140 -141c0 -66 36 -106 80 -128c18 -9 29 -11 60 -11zM1308 758c82 0 139 61 139 140c0 68 -36 106 -81 127c-19 9 -38 13 -58 13
c-76 0 -140 -53 -140 -140c0 -80 58 -140 140 -140zM1095 700c0 49 -25 125 -74 125c-43 0 -68 -82 -68 -125v-15h142v15zM174 191c-83 0 -140 55 -140 137s55 133 121 143c16 2 19 4 19 13c0 16 14 51 27 71c19 29 63 58 113 58c76 0 141 -60 141 -134c0 -19 -2 -36 -2 -44
c0 -10 22 -20 284 -137l287 -127l287 128c262 116 285 126 285 136c0 8 -3 26 -3 44c0 81 70 133 140 133c78 0 130 -57 139 -118c3 -20 4 -20 22 -23c61 -10 120 -59 120 -140c0 -80 -58 -140 -140 -140c-66 0 -98 32 -123 71l-508 -227c-472 -210 -507 -225 -507 -235
c0 -7 3 -25 3 -43c0 -38 -12 -65 -41 -94s-54 -39 -99 -39c-46 0 -69 9 -99 40c-23 23 -37 49 -41 79c-3 19 -3 20 -22 23c-63 8 -119 59 -119 140c0 86 66 139 139 139c43 0 71 -13 102 -45c12 -13 24 -24 25 -24c8 0 174 77 171 80c-2 2 -105 50 -230 105l-227 100
c-26 -38 -59 -70 -124 -70zM1587 46c66 0 107 -34 131 -80c10 -19 12 -28 12 -60c0 -31 -1 -42 -10 -60c-21 -43 -63 -74 -108 -80c-19 -3 -20 -3 -23 -22c-9 -63 -59 -120 -139 -120c-22 0 -45 3 -59 10c-27 12 -59 44 -71 71c-6 14 -10 42 -10 66c0 10 1 20 2 28
c0 1 1 3 1 4c0 8 -17 15 -193 93c-1 0 -1 1 -1 1c0 5 32 19 124 61l131 58l38 -17c28 -13 41 -19 50 -19s13 6 25 19c26 28 50 47 100 47z" />
    <glyph glyph-name="skull.1" unicode="&#xf013;" horiz-adv-x="1313" 
d="M670 1604c67 0 133 -13 198 -40c66 -27 124 -65 175 -114s91 -106 121 -172s45 -137 45 -211c0 -55 -13 -104 -41 -148s-66 -77 -112 -99c-22 -10 -42 -16 -61 -20s-50 -7 -92 -10c-31 -1 -52 -10 -64 -25s-23 -42 -30 -78l-4 2c-4 2 -9 2 -13 2c-13 0 -26 -5 -41 -15
c-9 7 -20 11 -35 11c-9 0 -20 -3 -33 -9c-1 -2 -5 -3 -9 -4c-14 7 -28 11 -41 11c-16 0 -31 -3 -44 -9c-12 4 -22 7 -32 9c-9 1 -23 2 -40 2c-3 35 -11 59 -24 74s-37 23 -70 24c-50 3 -81 6 -96 10c-14 4 -34 11 -57 23c-100 51 -150 137 -150 256c0 71 14 139 43 204
s71 121 123 170s112 87 178 115s135 41 206 41zM943 1218c-44 0 -82 -16 -113 -47s-47 -69 -47 -111s15 -78 46 -108s67 -44 111 -44s81 14 112 43c30 29 46 65 46 109c0 42 -15 80 -45 111s-66 47 -110 47zM388 1215c-42 0 -79 -15 -109 -46s-46 -69 -46 -113
c0 -42 16 -78 46 -107s67 -43 109 -43c44 0 82 14 113 43s47 65 47 107c0 44 -16 82 -47 113s-69 46 -113 46zM661 958c-45 -39 -68 -70 -68 -92c0 -19 7 -34 20 -46s28 -17 46 -17c19 0 35 6 49 18s21 28 21 47c0 14 -4 29 -14 41c-9 12 -28 29 -54 49zM945 751v-123
c0 -90 -24 -164 -72 -222s-116 -88 -205 -88c-79 0 -144 28 -196 83s-77 124 -77 206v133c42 -3 69 -11 80 -23c11 -13 16 -42 16 -87v-126c0 -32 5 -51 14 -58c10 -7 38 -10 86 -10c18 -6 32 -9 44 -9c10 0 23 3 39 9c13 -7 26 -11 38 -11c17 0 32 4 45 11
c13 -6 27 -9 40 -9c19 0 32 6 39 18s11 31 11 59v137c0 46 5 77 16 90s38 20 82 20zM554 639c16 0 24 -9 24 -28v-44h-54v44c0 19 10 28 30 28zM631 639c12 0 18 -1 20 -5s4 -12 4 -23v-44h-48v48c0 16 8 24 24 24zM709 639c12 0 19 -1 21 -5s3 -12 3 -23v-44h-48v44
c0 19 8 28 24 28zM792 639c16 0 24 -9 24 -28v-44h-50v44c0 19 8 28 26 28zM524 528h54v-35c0 -25 -8 -37 -24 -37c-20 0 -30 12 -30 37v35zM607 528h48v-35c0 -25 -8 -37 -24 -37s-24 12 -24 37v35zM685 528h48v-35c0 -25 -9 -37 -28 -37c-13 0 -20 12 -20 37v35zM766 528
h50v-35c0 -23 -9 -35 -28 -35c-15 0 -22 12 -22 35v35zM204 416h2c37 0 66 -30 89 -88c7 -19 12 -37 15 -54l205 -92l152 -68l33 15l306 139c4 25 9 47 16 66c20 52 50 79 89 79c15 0 31 -4 49 -12c19 -11 33 -26 41 -46s7 -41 -1 -62c-6 -15 -16 -31 -29 -47
c21 0 40 -3 55 -9c35 -13 52 -48 51 -103c-11 -47 -38 -70 -80 -70c-19 0 -42 5 -68 15c-19 7 -35 16 -50 26l-196 -87l196 -88c15 9 32 17 51 24c26 10 48 15 67 15c42 0 68 -23 80 -70c2 -7 3 -15 3 -22c0 -13 -3 -26 -10 -38c-10 -19 -24 -32 -45 -40
c-15 -6 -34 -10 -56 -11c14 -16 24 -32 30 -47c3 -8 5 -17 5 -25c0 -27 -16 -54 -46 -81c-17 -7 -33 -11 -48 -11c-38 0 -67 25 -87 76c-7 20 -13 43 -17 70l-107 48l-192 87l-40 18l-138 -61l-220 -98c-4 -17 -10 -34 -17 -53c-22 -58 -53 -86 -90 -86c-15 0 -31 4 -49 14
c-19 11 -32 25 -40 45c-7 20 -7 41 1 61c6 15 15 31 29 48c-21 0 -40 3 -55 9c-35 13 -51 47 -51 101c16 46 43 69 83 69c17 0 35 -4 56 -12c20 -8 40 -19 63 -34l107 47l103 45l-211 92c-21 -14 -41 -25 -60 -32c-21 -8 -40 -12 -57 -12c-41 0 -69 23 -85 70
c-2 8 -3 15 -3 22c0 14 3 27 10 39c10 19 26 32 47 40c15 6 33 9 54 10c-14 16 -24 32 -30 47c-3 8 -5 16 -5 25c0 27 16 55 47 82c17 10 33 15 48 15z" />
    <glyph glyph-name="skull.2" unicode="&#xf014;" horiz-adv-x="1692" 
d="M848 184h-12c-34 0 -207 6 -270 127c-23 44 -25 94 -28 147c-3 62 -6 126 -44 182l-1 3l-2 1c-49 45 -93 96 -131 150c-46 87 -71 203 -71 312c0 37 3 73 9 107c49 270 217 391 544 391s495 -121 544 -391c6 -34 9 -71 9 -108c0 -109 -26 -224 -72 -311
c-38 -54 -81 -105 -130 -150l-2 -1l-1 -3c-38 -56 -41 -119 -44 -181c-3 -53 -5 -104 -28 -148c-63 -121 -236 -127 -270 -127zM785 919c0 75 -66 114 -135 114c-106 0 -191 -83 -191 -162c0 -75 66 -114 135 -114c106 0 191 83 191 162zM1034 1033
c-69 0 -135 -38 -135 -114c0 -79 85 -162 191 -162c69 0 135 40 135 114c0 78 -86 162 -191 162zM832 478h20c60 0 106 2 106 75c0 77 -116 204 -116 204s-116 -127 -116 -204c0 -73 46 -75 106 -75zM98 -33c0 87 58 151 144 151c65 0 116 -41 146 -102c4 -8 12 -14 23 -9
l267 133l-347 173c-10 5 -19 -1 -23 -8c-26 -59 -84 -98 -144 -98c-85 0 -144 67 -144 151c0 76 46 129 99 153c9 4 10 16 10 29v22c0 5 0 11 1 15c13 72 73 124 140 124h2c81 0 135 -71 135 -145c0 -34 -10 -62 -25 -84c-7 -9 0 -22 7 -25l111 -55c4 -34 11 -68 28 -100
c74 -143 270 -151 308 -151h12c38 0 234 8 308 151c17 32 24 66 28 100l111 55c7 3 14 16 7 25c-15 22 -25 50 -25 84c0 75 54 145 137 145c72 0 142 -61 142 -150c0 -7 0 -15 -1 -22s3 -15 10 -18c53 -24 99 -77 99 -153c0 -85 -59 -151 -144 -151c-60 0 -118 39 -144 98
c-4 7 -13 13 -23 8l-347 -173l267 -133c12 -6 20 3 24 11c26 61 84 100 145 100c86 0 144 -64 144 -151c0 -75 -45 -129 -98 -153c-9 -4 -10 -16 -10 -29v-22c0 -5 0 -11 -1 -15c-13 -72 -74 -124 -141 -124c-83 0 -136 70 -136 145c0 33 7 57 21 80c5 11 1 20 -7 24
l-372 185l-372 -185c-8 -4 -12 -13 -7 -24c14 -23 21 -47 21 -80c0 -75 -53 -145 -136 -145c-72 0 -143 61 -143 151c0 7 0 15 1 22s-3 14 -10 17c-53 24 -98 78 -98 153z" />
    <glyph glyph-name="skull.3" unicode="&#xf015;" horiz-adv-x="1818" 
d="M909 1604c196 0 350 -93 406 -143c132 -117 208 -285 208 -461c0 -113 -92 -205 -205 -205h-42v-160c0 -70 -55 -127 -125 -127h-240h-4h-240c-70 0 -127 57 -127 127v160h-40c-113 0 -205 92 -205 205c0 176 76 344 208 461c56 50 202 143 406 143zM537 1254
c-14 -21 -23 -47 -23 -75c0 -77 62 -138 139 -138s139 61 139 138c0 28 -8 54 -22 75h-233zM1048 1254c-14 -21 -22 -47 -22 -75c0 -77 62 -138 139 -138s139 61 139 138c0 28 -9 54 -23 75h-233zM909 1085c-10 0 -21 -6 -26 -15l-75 -128c-5 -9 -5 -21 0 -30s15 -15 26 -15
h73h4h73c11 0 21 6 26 15s5 21 0 30l-75 128c-5 9 -15 15 -26 15zM264 719c18 0 36 -4 53 -11c51 -22 81 -72 81 -125c0 -18 -3 -37 -11 -55c-4 -9 -8 -17 -14 -25l536 -233l536 233c-5 8 -10 16 -14 25c-8 18 -11 36 -11 54c0 53 31 104 82 126c18 8 36 11 54 11
c53 0 103 -31 125 -82c7 -18 11 -36 11 -54c0 -30 -10 -59 -28 -83c48 -5 92 -35 112 -82c8 -18 11 -36 11 -54c0 -53 -31 -103 -82 -125c-18 -8 -36 -11 -54 -11c-53 0 -103 31 -125 82c-4 9 -7 18 -9 27l-381 -166l381 -166c2 9 5 19 9 28c22 51 72 82 125 82
c18 0 36 -3 54 -11c51 -22 82 -73 82 -126c0 -18 -3 -36 -11 -54c-20 -47 -64 -76 -112 -81c18 -24 28 -53 28 -83c0 -18 -4 -36 -11 -54c-22 -51 -72 -82 -125 -82c-18 0 -36 3 -54 11c-51 22 -82 73 -82 126c0 18 3 36 11 54c4 9 9 17 14 25l-536 233l-536 -233
c6 -8 10 -16 14 -25c8 -18 11 -37 11 -55c0 -53 -30 -103 -81 -125c-18 -8 -36 -11 -54 -11c-53 0 -104 31 -126 82c-7 18 -11 36 -11 54c0 30 10 59 28 83c-48 5 -92 34 -112 81c-8 18 -11 36 -11 54c0 53 31 104 82 126c18 8 36 11 54 11c53 0 103 -31 125 -82
c4 -9 7 -19 9 -28l381 166l-381 166c-2 -9 -5 -18 -9 -27c-22 -51 -72 -82 -125 -82c-18 0 -36 3 -54 11c-51 22 -82 72 -82 125c0 18 3 36 11 54c20 47 64 77 112 82c-18 24 -28 53 -28 83c0 18 4 36 11 54c22 51 73 82 125 82h2z" />
    <glyph glyph-name="skull.4" unicode="&#xf016;" horiz-adv-x="1458" 
d="M1414 -136c-16 -35 -46 -57 -81 -65c9 -18 14 -38 14 -58c0 -16 -3 -32 -10 -47c-20 -44 -64 -70 -109 -70c-17 0 -34 4 -50 11c-45 20 -71 64 -71 109c0 17 3 34 11 50c1 3 4 4 5 7l-395 177l-400 -166c1 -2 3 -4 4 -7c7 -15 10 -31 10 -47c0 -47 -28 -92 -74 -111
c-15 -6 -31 -9 -46 -9c-47 0 -91 28 -111 74c-6 15 -9 29 -9 44c0 21 6 42 16 60c-34 9 -65 32 -80 67c-7 15 -10 31 -10 47c0 47 28 92 74 111c15 6 31 10 47 10c47 0 91 -28 111 -74c1 -3 1 -6 2 -8l252 105l-249 112c-1 -2 -1 -5 -2 -7c-20 -44 -65 -70 -111 -70
c-17 0 -33 3 -49 10c-44 21 -70 63 -70 109c0 17 4 34 11 50c16 35 47 57 82 66c-9 18 -15 39 -15 59c0 15 3 30 10 45c21 45 64 71 110 71c17 0 34 -4 50 -11c44 -20 70 -64 70 -109c0 -17 -3 -34 -11 -51c-1 -3 -3 -4 -4 -6l395 -178l399 166c-1 3 -4 4 -5 7
c-6 15 -9 31 -9 46c0 47 28 92 74 112c15 6 31 10 46 10c47 0 91 -28 111 -75c6 -14 9 -29 9 -44c0 -21 -6 -42 -16 -60c35 -9 65 -31 80 -67c6 -15 10 -31 10 -47c0 -47 -28 -91 -74 -111c-15 -6 -31 -10 -47 -10c-47 0 -91 28 -111 74c-1 3 -1 6 -2 8l-252 -105l249 -112
c1 2 1 5 2 8c20 44 64 70 110 70c17 0 34 -3 50 -11c44 -20 70 -63 70 -108c0 -17 -3 -34 -11 -51zM1134 906c31 -29 51 -68 51 -112c0 -73 -54 -131 -126 -149v-55c0 -94 -77 -171 -171 -171h-318c-94 0 -171 77 -171 171v54c-72 18 -127 77 -127 150c0 44 20 84 52 112
c-49 71 -78 155 -78 246c0 249 216 452 483 452s483 -203 483 -452c0 -91 -29 -175 -78 -246zM649 1119c0 71 -59 129 -133 129s-134 -58 -134 -129s60 -129 134 -129s133 58 133 129zM869 739l-130 219l-135 -223l134 64zM1076 1119c0 71 -61 129 -134 129
c-74 0 -133 -58 -133 -129s59 -129 133 -129s134 58 134 129z" />
    <glyph glyph-name="weather" unicode="&#xf017;" horiz-adv-x="2016" 
d="M625 1527h106v-4v-91v-92v-2h-106v189zM954 1465l91 -53l-94 -163l-92 52zM402 1464l95 -164l-92 -53l-94 164zM682 1251c126 0 237 -67 301 -169l4 5c83 97 205 158 340 158c76 0 147 -19 210 -53c43 -21 79 -48 119 -87c78 -78 124 -181 134 -299l3 -35l26 -14
c14 -8 43 -32 64 -54c43 -43 70 -90 84 -146c7 -27 10 -53 10 -80c0 -121 -66 -236 -176 -291c-75 -37 -24 -34 -650 -35h-262c-244 0 -307 1 -326 5c-22 5 -44 13 -64 24c-93 45 -157 141 -157 253c0 75 29 145 77 195l-11 13c-62 72 -93 158 -93 243c0 73 23 146 69 211
c23 33 52 60 83 82l1 1c60 46 134 73 214 73zM149 1249l164 -94l-53 -92l-164 95zM673 1141c-49 -1 -99 -17 -143 -47c-36 -25 -64 -57 -83 -94v-1c-1 -1 -1 -2 -2 -3c-16 -35 -25 -74 -25 -115c0 -19 2 -38 6 -56c1 -2 0 -4 1 -6c4 -17 11 -35 19 -52c11 -22 41 -59 60 -77
c7 3 14 6 21 8c45 158 187 274 354 274c7 0 14 -1 21 -1c7 1 12 2 13 3s1 2 1 3c0 19 -49 84 -83 110c-48 36 -102 54 -156 54h-4zM1333 1137c-16 0 -32 -1 -48 -3c-77 -11 -137 -40 -194 -93c-50 -47 -88 -107 -102 -164c-3 -12 -6 -23 -6 -24h-2v-1c-3 1 -7 2 -10 3
c-6 1 -12 2 -20 4c-19 4 -37 6 -56 6c-137 0 -259 -103 -271 -240l-3 -30l-22 -3c-53 -6 -102 -43 -127 -93c-14 -28 -15 -33 -15 -75c0 -38 2 -50 10 -68c21 -45 57 -78 102 -94c10 -3 25 -5 79 -6c114 0 732 -1 934 -1c64 1 95 1 112 3c19 4 39 10 56 18c1 0 0 1 1 1
s1 1 2 1c58 30 101 86 116 150c3 14 4 29 4 44c0 115 -88 210 -202 218c7 29 11 59 11 90c0 91 -32 173 -85 237c-67 75 -165 120 -264 120zM39 936h188v-106h-188v106zM257 702l53 -92l-163 -94l-53 92zM808 36h55h54l-3 -7h5l-162 -328h-115l4 8h-1l82 164zM1026 36h54h55
l-4 -7h6l-163 -328h-114l4 8h-1l81 164zM1244 36h54h55l-4 -7h6l-163 -328h-114l4 8h-2l82 164zM1461 36h55h54l-3 -7h5l-162 -328h-115l4 8h-1l82 164z" />
    <glyph glyph-name="weather_clouds_rain" unicode="&#xf018;" horiz-adv-x="1558" 
d="M521 274h-215c-6 0 -21 0 -42 4c-138 23 -244 144 -244 288c0 112 63 210 156 259c42 144 175 249 332 249h1c75 134 220 225 384 225c237 0 430 -188 438 -423c111 -48 189 -159 189 -288c0 -84 -33 -161 -87 -217c22 -32 34 -70 34 -112c0 -99 -70 -182 -164 -200
c0 0 -15 -2 -21 -3s-12 -1 -18 -1h-556c0 0 -6 0 -20 1s-18 3 -18 3c-86 18 -151 95 -151 186c0 10 1 20 2 29zM893 1206c-139 0 -259 -81 -314 -199l-13 -30l-33 3c-8 1 -17 1 -25 1c-121 0 -222 -85 -246 -199l-5 -23l-23 -10c-71 -30 -121 -100 -121 -183
c0 -110 88 -198 198 -199h4h249c15 18 32 33 53 44c27 90 111 156 209 158c49 84 139 140 243 140c150 0 273 -118 281 -266c5 -3 10 -5 15 -8c38 40 62 93 62 153c0 100 -66 183 -156 211l-35 11l2 36v15c0 191 -154 345 -345 345zM1069 634c-83 0 -154 -49 -187 -119
l-11 -24l-26 3h-15c-72 0 -131 -49 -145 -116l-4 -19l-17 -8c-41 -17 -71 -58 -71 -106c0 -64 51 -115 115 -115h5h284h268c71 1 128 58 128 129c0 58 -38 107 -91 123l-28 8l1 29c0 3 1 6 1 9c0 114 -93 206 -207 206zM672 0h49h49l-146 -300h-98zM837 0h48h50l-146 -300
h-98zM1001 0h49h49l-146 -300h-98zM1165 0h49h49l-146 -300h-98z" />
    <glyph glyph-name="weather_clouds" unicode="&#xf019;" horiz-adv-x="1760" 
d="M588 157h-244c-7 0 -24 0 -48 4c-156 26 -276 163 -276 327c0 127 72 238 177 293c47 163 198 283 376 283h2c85 152 248 255 434 255c268 0 488 -214 497 -480c126 -55 214 -180 214 -326c0 -95 -38 -182 -99 -246c25 -37 39 -81 39 -128c0 -112 -80 -205 -186 -226
c0 0 -16 -2 -23 -3s-14 -1 -21 -1h-631c0 0 -6 -1 -22 1s-20 3 -20 3c-98 20 -172 108 -172 211c0 11 1 22 3 33zM1009 1213c-158 0 -293 -92 -355 -226l-16 -34l-37 4c-9 1 -19 1 -28 1c-138 0 -251 -96 -279 -225l-6 -27l-25 -11c-81 -34 -137 -113 -137 -207
c0 -125 100 -225 224 -226h5h281c17 20 38 37 61 50c31 102 126 177 237 179c55 95 158 159 275 159c170 0 309 -134 318 -302l18 -9c43 45 69 106 69 174c0 113 -75 208 -177 239l-39 12l2 41c0 6 1 11 1 17c0 217 -175 391 -392 391zM1209 565c-94 0 -175 -55 -212 -135
l-12 -27l-30 3c-5 1 -11 1 -17 1c-81 0 -148 -57 -164 -133l-4 -21l-21 -9c-47 -20 -79 -66 -79 -120c0 -72 58 -131 130 -131h5h319h307c81 1 145 65 145 146c0 66 -43 122 -103 140l-32 10l2 32v11c0 130 -104 233 -234 233z" />
    <glyph glyph-name="weather_sun_cloud" unicode="&#xf01a;" horiz-adv-x="2048" 
d="M619 1332h108v-193h-108v193zM954 1268l94 -54l-96 -166l-94 54zM391 1267l97 -167l-94 -54l-96 167zM408 414c-65 76 -106 165 -106 260c0 121 71 240 155 300l1 1c61 47 137 75 219 75c129 0 242 -69 308 -173c82 102 213 167 351 167c77 0 150 -19 214 -54
c139 -66 244 -219 259 -395l3 -35l26 -15c65 -37 133 -125 152 -203c7 -27 10 -55 10 -82c0 -124 -68 -242 -180 -298c-76 -38 -24 -35 -664 -36h-235c-277 0 -345 2 -365 6c-131 28 -227 145 -227 283c0 77 30 148 79 199zM133 1048l167 -96l-54 -94l-167 97zM902 764
c9 1 14 2 14 7c0 19 -48 84 -84 111c-48 37 -104 55 -160 55h-4c-103 -2 -192 -68 -231 -143v-1c-1 -1 -1 -2 -2 -3c-16 -36 -25 -76 -25 -118v-12c0 -18 1 -39 7 -52c15 -53 43 -96 80 -131c7 3 14 5 21 8c46 161 191 280 362 280c7 0 15 -1 22 -1zM1596 32
c106 2 114 -3 171 22c1 0 1 1 2 1s1 1 2 1c59 31 103 88 118 153v1c3 15 5 30 5 45c0 118 -91 214 -207 222c7 30 11 60 11 92c0 93 -32 177 -86 242c-68 76 -169 123 -270 123h-2c-107 0 -179 -37 -245 -99c-51 -48 -90 -108 -104 -167c-3 -12 -6 -23 -6 -24h-3v-2
c-23 8 -58 14 -88 14c-139 0 -264 -106 -276 -246l-3 -30l-23 -3c-54 -6 -105 -44 -130 -95c-14 -28 -15 -34 -15 -76c0 -39 2 -51 11 -70c21 -46 58 -80 104 -96c10 -3 25 -6 80 -7c116 0 748 -1 954 -1zM20 728h193v-108h-193v108zM243 489l54 -93l-167 -97l-54 94z" />
    <glyph glyph-name="weather_sun" unicode="&#xf01b;" horiz-adv-x="1722" 
d="M861 1114c276 0 500 -224 500 -500s-224 -500 -500 -500s-500 224 -500 500s224 500 500 500zM861 1008c-218 0 -394 -176 -394 -394s176 -394 394 -394s394 176 394 394s-176 394 -394 394zM801 1173v280h120v-280h-120zM801 -225v280h120v-280h-120zM302 554h-280v120
h280v-120zM1700 554h-280v120h280v-120zM529 1068l-140 243l104 60l140 -243zM1229 -143l-140 243l104 60l140 -243zM347 842l-243 140l60 104l243 -140zM1558 142l-243 140l60 104l243 -140zM407 282l-243 -140l-60 104l243 140zM1618 982l-243 -140l-60 104l243 140z
M633 100l-140 -243l-104 60l140 243zM1333 1311l-140 -243l-104 60l140 243z" />
  </font>
</defs>
</svg>
