<?xml version="1.0" standalone="no"?>
<!DOCTYPE svg PUBLIC "-//W3C//DTD SVG 20010904//EN"
 "http://www.w3.org/TR/2001/REC-SVG-20010904/DTD/svg10.dtd">
<svg version="1.0" xmlns="http://www.w3.org/2000/svg"
 width="16.000000pt" height="16.000000pt" viewBox="0 0 16.000000 16.000000"
 preserveAspectRatio="xMidYMid meet">
<metadata>
Created by potrace 1.11, written by Peter Selinger 2001-2013
</metadata>
<g transform="translate(0.000000,16.000000) scale(0.002548,-0.002548)"
fill="#000000" stroke="none">
<path d="M2905 6274 c-16 -2 -77 -9 -135 -15 -371 -39 -814 -180 -1145 -366
-658 -369 -1164 -951 -1420 -1633 -89 -236 -141 -440 -182 -710 -25 -164 -25
-656 0 -820 63 -414 185 -787 364 -1105 504 -897 1362 -1475 2383 -1607 140
-18 600 -18 740 0 862 111 1616 545 2135 1227 333 438 544 960 617 1525 18
140 18 600 0 740 -120 930 -614 1732 -1385 2247 -393 263 -835 429 -1326 499
-100 14 -576 28 -646 18z m650 -244 c493 -73 952 -265 1349 -564 61 -47 154
-125 206 -174 l95 -91 -444 -444 -444 -445 -68 61 c-190 169 -434 303 -672
369 l-49 13 -54 130 c-208 499 -328 775 -336 773 -8 -3 -128 -282 -347 -805
l-43 -101 -51 -13 c-78 -18 -197 -64 -287 -109 -412 -207 -706 -546 -849 -975
-46 -140 -81 -338 -81 -462 l0 -53 -630 0 -630 0 0 44 c0 168 41 473 90 666
294 1166 1277 2038 2460 2184 188 24 199 24 425 21 151 -2 252 -9 360 -25z
m-896 -1502 c-68 -164 -211 -557 -277 -758 -76 -233 -116 -394 -132 -535 -42
-377 177 -745 535 -902 123 -53 203 -68 365 -67 127 1 156 4 235 28 283 86
506 295 599 562 70 199 65 379 -15 682 -54 203 -208 640 -343 972 -19 47 -32
87 -30 89 11 12 246 -93 344 -153 361 -223 610 -580 702 -1006 19 -89 22 -135
22 -300 0 -165 -3 -211 -22 -300 -133 -617 -586 -1069 -1202 -1201 -88 -19
-136 -23 -300 -23 -210 0 -312 15 -480 70 -629 210 -1050 792 -1050 1454 0
337 106 655 309 925 134 179 362 367 548 451 87 40 196 83 210 84 7 0 1 -27
-18 -72z m618 -1078 c62 -26 135 -101 166 -168 32 -72 30 -189 -4 -263 -33
-69 -89 -127 -155 -160 -71 -34 -188 -39 -266 -9 -72 27 -141 92 -176 168 -36
77 -38 192 -4 267 25 55 91 128 137 152 91 49 209 54 302 13z m-1266 -1526
c18 -20 68 -62 109 -94 462 -353 1039 -444 1589 -249 184 65 402 196 539 323
l63 60 445 -445 445 -444 -73 -69 c-263 -250 -617 -468 -971 -600 -783 -292
-1668 -231 -2400 166 -211 114 -433 273 -605 433 l-74 68 444 444 c243 244
445 443 448 443 4 0 22 -16 41 -36z"/>
</g>
</svg>
